# xmcd CD database file
#
# Track frame offsets:
#	150
#	14457
#	29070
#	79130
#	93390
#	108797
#	169515
#	185820
#	199557
#	212057
#	223970
#	236635
#	248017
#	263532
#	277527
#	291435
#
# Disc length: 4064 seconds
#
# Revision: 0
# Processed by: cddbd v1.5.2PL0 Copyright (c) Steve Scherf et al.
# Submitted via: CDex 1.70beta2
#
DISCID=e10fde10
DTITLE=Charlie Parker - Confirmation, Best Of The Verve Years cd2
DYEAR=1947
DGENRE=Jazz
TTITLE0=Cardboard
TTITLE1=I didn't know what time it was
TTITLE2=Oh, Lady, be good!
TTITLE3=I can't get started
TTITLE4=Lover man
TTITLE5=Funky blues
TTITLE6=Old folks
TTITLE7=Now's the time
TTITLE8=Tico-Tico
TTITLE9=What is this thing called love?
TTITLE10=Blues for Alice
TTITLE11=Leap frog
TTITLE12=Bloomdido
TTITLE13=My little suede shoes
TTITLE14=Chi Chi
TTITLE15=Repetition
EXTD=YEAR: 1947
EXTT0=
EXTT1=
EXTT2=
EXTT3=
EXTT4=
EXTT5=
EXTT6=
EXTT7=
EXTT8=
EXTT9=
EXTT10=
EXTT11=
EXTT12=
EXTT13=
EXTT14=
EXTT15=
PLAYORDER=
